<svg xmlns="http://www.w3.org/2000/svg" viewBox="0 0 128 128" width="128" height="128">
  <defs>
    <linearGradient id="bagGrad" x1="0%" y1="0%" x2="0%" y2="100%">
      <stop offset="0%" style="stop-color:#5dd9c8"/>
      <stop offset="100%" style="stop-color:#2eb8a0"/>
    </linearGradient>
  </defs>
  <!-- Bag body (transparent background - no rect behind) -->
  <path fill="url(#bagGrad)" stroke="#1a9b87" stroke-width="2" stroke-linejoin="round"
        d="M24 44 L24 100 Q24 108 32 108 L96 108 Q104 108 104 100 L104 44 Q104 36 96 36 L32 36 Q24 36 24 44 Z"/>
  <!-- Bag top / opening -->
  <path fill="none" stroke="#1a9b87" stroke-width="2.5" stroke-linecap="round"
        d="M28 44 L28 32 Q28 24 40 24 L88 24 Q100 24 100 32 L100 44"/>
  <!-- Handles -->
  <path fill="none" stroke="#1a9b87" stroke-width="3" stroke-linecap="round"
        d="M44 24 L44 16 Q44 8 64 8 Q84 8 84 16 L84 24"/>
  <!-- Checkmark for "task" -->
  <path fill="none" stroke="white" stroke-width="4" stroke-linecap="round" stroke-linejoin="round"
        d="M44 64 L56 76 L84 48"/>
</svg>
